<?xml version="1.0" encoding="utf-8"?><svg xmlns="http://www.w3.org/2000/svg" xmlns:xlink="http://www.w3.org/1999/xlink"><symbol viewBox="0 0 640 480" id="a"><title>Layer 1</title><path stroke-width="5" stroke="#000" fill="#F00" d="M49 44h185v73H49z"/><ellipse ry="87" rx="123" cy="347" cx="276" stroke-width="5" stroke="#000" fill="#ff7f00"/></symbol><symbol viewBox="0 0 440 480" id="b"><title>Layer 1</title><path fill="#F00" stroke="#000" stroke-width="5" d="M96 83.161l9.132 26.27 27.806.567-22.163 16.803 8.054 26.62L96 137.535l-22.829 15.886 8.054-26.62-22.163-16.803 27.806-.566L96 83.162l9.132 26.27zM183 115.36l9.555 27.489 29.095.593-23.19 17.581 8.427 27.855L183 172.256l-23.887 16.622 8.427-27.855-23.19-17.581 29.095-.593L183 115.36l9.555 27.488zM88 166.188l8.655 24.9 26.355.537-21.006 15.925 7.633 25.231L88 217.725 66.363 232.78l7.633-25.23-21.006-15.926 26.355-.538L88 166.188l8.655 24.9z"/><path fill="none" stroke="#000" stroke-width="5" stroke-dasharray="null" stroke-linejoin="null" stroke-linecap="null" d="M40 392l23-21M124 332l133-82M337 126h1"/></symbol></svg>